<mxfile host="app.diagrams.net" modified="2023-05-20T17:34:22.808Z" agent="Mozilla/5.0 (Windows NT 10.0; Win64; x64) AppleWebKit/537.36 (KHTML, like Gecko) Chrome/113.0.0.0 Safari/537.36" etag="ce2yapfqwgyRXwV8AOT-" version="21.3.2" type="device">
  <diagram name="Page-1" id="uMoK5SL-Dd_RTB1r9qRN">
    <mxGraphModel dx="1560" dy="403" grid="1" gridSize="10" guides="1" tooltips="1" connect="1" arrows="1" fold="1" page="1" pageScale="1" pageWidth="827" pageHeight="1169" math="0" shadow="0">
      <root>
        <mxCell id="0" />
        <mxCell id="1" parent="0" />
        <mxCell id="YJhQJvPEeClIZDTAyirI-1" value="" style="shape=image;verticalLabelPosition=bottom;labelBackgroundColor=default;verticalAlign=top;aspect=fixed;imageAspect=0;image=https://api.circuit-diagram.org/w-components/circuitdiagram/4a8d2a10-f719-4b2c-834f-7bbb30f03406/1.0/render/NodeMCU/nodemcu.svg;clipPath=inset(30.44% 40.33% 30.89% 40.33%);rotation=90;flipV=0;" parent="1" vertex="1">
          <mxGeometry x="280" y="340" width="163.33" height="245" as="geometry" />
        </mxCell>
        <mxCell id="ulvikcTlUFl-ReV67SD8-18" value="" style="group" parent="1" vertex="1" connectable="0">
          <mxGeometry x="237" y="660" width="240" height="100" as="geometry" />
        </mxCell>
        <mxCell id="ulvikcTlUFl-ReV67SD8-1" value="&lt;h2 style=&quot;box-sizing: border-box; margin: 0px; padding: 0px; border: 0px; font-family: Arial, Helvetica, sans-serif; line-height: 1; color: rgb(34, 34, 34); text-align: start; background-color: rgb(255, 255, 255);&quot; class=&quot;elementor-heading-title elementor-size-default&quot;&gt;&lt;font style=&quot;font-size: 14px;&quot;&gt;74HC4051&amp;nbsp;&lt;/font&gt;&lt;/h2&gt;" style="rounded=0;whiteSpace=wrap;html=1;" parent="ulvikcTlUFl-ReV67SD8-18" vertex="1">
          <mxGeometry width="240" height="100" as="geometry" />
        </mxCell>
        <mxCell id="ulvikcTlUFl-ReV67SD8-2" value="A4" style="text;html=1;strokeColor=default;fillColor=none;align=center;verticalAlign=middle;whiteSpace=wrap;rounded=0;" parent="ulvikcTlUFl-ReV67SD8-18" vertex="1">
          <mxGeometry y="80" width="30" height="20" as="geometry" />
        </mxCell>
        <mxCell id="ulvikcTlUFl-ReV67SD8-3" value="A6" style="text;html=1;strokeColor=default;fillColor=none;align=center;verticalAlign=middle;whiteSpace=wrap;rounded=0;" parent="ulvikcTlUFl-ReV67SD8-18" vertex="1">
          <mxGeometry x="30" y="80" width="30" height="20" as="geometry" />
        </mxCell>
        <mxCell id="ulvikcTlUFl-ReV67SD8-4" value="A" style="text;html=1;strokeColor=default;fillColor=none;align=center;verticalAlign=middle;whiteSpace=wrap;rounded=0;" parent="ulvikcTlUFl-ReV67SD8-18" vertex="1">
          <mxGeometry x="60" y="80" width="30" height="20" as="geometry" />
        </mxCell>
        <mxCell id="ulvikcTlUFl-ReV67SD8-5" value="A7" style="text;html=1;strokeColor=default;fillColor=none;align=center;verticalAlign=middle;whiteSpace=wrap;rounded=0;" parent="ulvikcTlUFl-ReV67SD8-18" vertex="1">
          <mxGeometry x="90" y="80" width="30" height="20" as="geometry" />
        </mxCell>
        <mxCell id="ulvikcTlUFl-ReV67SD8-6" value="A5" style="text;html=1;strokeColor=default;fillColor=none;align=center;verticalAlign=middle;whiteSpace=wrap;rounded=0;" parent="ulvikcTlUFl-ReV67SD8-18" vertex="1">
          <mxGeometry x="120" y="80" width="30" height="20" as="geometry" />
        </mxCell>
        <mxCell id="ulvikcTlUFl-ReV67SD8-7" value="A&#39;" style="text;html=1;strokeColor=default;fillColor=none;align=center;verticalAlign=middle;whiteSpace=wrap;rounded=0;" parent="ulvikcTlUFl-ReV67SD8-18" vertex="1">
          <mxGeometry x="150" y="80" width="30" height="20" as="geometry" />
        </mxCell>
        <mxCell id="ulvikcTlUFl-ReV67SD8-8" value="VEE" style="text;html=1;strokeColor=default;fillColor=none;align=center;verticalAlign=middle;whiteSpace=wrap;rounded=0;" parent="ulvikcTlUFl-ReV67SD8-18" vertex="1">
          <mxGeometry x="180" y="80" width="30" height="20" as="geometry" />
        </mxCell>
        <mxCell id="ulvikcTlUFl-ReV67SD8-9" value="GND" style="text;html=1;strokeColor=default;fillColor=none;align=center;verticalAlign=middle;whiteSpace=wrap;rounded=0;" parent="ulvikcTlUFl-ReV67SD8-18" vertex="1">
          <mxGeometry x="210" y="80" width="30" height="20" as="geometry" />
        </mxCell>
        <mxCell id="ulvikcTlUFl-ReV67SD8-10" value="VCC" style="text;html=1;strokeColor=default;fillColor=none;align=center;verticalAlign=middle;whiteSpace=wrap;rounded=0;" parent="ulvikcTlUFl-ReV67SD8-18" vertex="1">
          <mxGeometry width="30" height="20" as="geometry" />
        </mxCell>
        <mxCell id="ulvikcTlUFl-ReV67SD8-11" value="A2" style="text;html=1;strokeColor=default;fillColor=none;align=center;verticalAlign=middle;whiteSpace=wrap;rounded=0;" parent="ulvikcTlUFl-ReV67SD8-18" vertex="1">
          <mxGeometry x="30" width="30" height="20" as="geometry" />
        </mxCell>
        <mxCell id="ulvikcTlUFl-ReV67SD8-12" value="A1" style="text;html=1;strokeColor=default;fillColor=none;align=center;verticalAlign=middle;whiteSpace=wrap;rounded=0;" parent="ulvikcTlUFl-ReV67SD8-18" vertex="1">
          <mxGeometry x="60" width="30" height="20" as="geometry" />
        </mxCell>
        <mxCell id="ulvikcTlUFl-ReV67SD8-13" value="A0" style="text;html=1;strokeColor=default;fillColor=none;align=center;verticalAlign=middle;whiteSpace=wrap;rounded=0;" parent="ulvikcTlUFl-ReV67SD8-18" vertex="1">
          <mxGeometry x="90" width="30" height="20" as="geometry" />
        </mxCell>
        <mxCell id="ulvikcTlUFl-ReV67SD8-14" value="A3" style="text;html=1;strokeColor=default;fillColor=none;align=center;verticalAlign=middle;whiteSpace=wrap;rounded=0;" parent="ulvikcTlUFl-ReV67SD8-18" vertex="1">
          <mxGeometry x="120" width="30" height="20" as="geometry" />
        </mxCell>
        <mxCell id="ulvikcTlUFl-ReV67SD8-15" value="S0" style="text;html=1;strokeColor=default;fillColor=none;align=center;verticalAlign=middle;whiteSpace=wrap;rounded=0;" parent="ulvikcTlUFl-ReV67SD8-18" vertex="1">
          <mxGeometry x="150" width="30" height="20" as="geometry" />
        </mxCell>
        <mxCell id="ulvikcTlUFl-ReV67SD8-16" value="S1" style="text;html=1;strokeColor=default;fillColor=none;align=center;verticalAlign=middle;whiteSpace=wrap;rounded=0;" parent="ulvikcTlUFl-ReV67SD8-18" vertex="1">
          <mxGeometry x="180" width="30" height="20" as="geometry" />
        </mxCell>
        <mxCell id="ulvikcTlUFl-ReV67SD8-17" value="S2" style="text;html=1;strokeColor=default;fillColor=none;align=center;verticalAlign=middle;whiteSpace=wrap;rounded=0;" parent="ulvikcTlUFl-ReV67SD8-18" vertex="1">
          <mxGeometry x="210" width="30" height="20" as="geometry" />
        </mxCell>
        <mxCell id="ulvikcTlUFl-ReV67SD8-19" value="" style="endArrow=none;html=1;rounded=0;entryX=0.986;entryY=0.161;entryDx=0;entryDy=0;entryPerimeter=0;exitX=0.435;exitY=-0.006;exitDx=0;exitDy=0;exitPerimeter=0;" parent="1" source="ulvikcTlUFl-ReV67SD8-15" target="YJhQJvPEeClIZDTAyirI-1" edge="1">
          <mxGeometry width="50" height="50" relative="1" as="geometry">
            <mxPoint x="390" y="690" as="sourcePoint" />
            <mxPoint x="440" y="640" as="targetPoint" />
            <Array as="points">
              <mxPoint x="400" y="620" />
              <mxPoint x="445" y="620" />
            </Array>
          </mxGeometry>
        </mxCell>
        <mxCell id="ulvikcTlUFl-ReV67SD8-20" value="" style="endArrow=none;html=1;rounded=0;entryX=0.986;entryY=0.217;entryDx=0;entryDy=0;entryPerimeter=0;exitX=0.5;exitY=0;exitDx=0;exitDy=0;" parent="1" source="ulvikcTlUFl-ReV67SD8-16" target="YJhQJvPEeClIZDTAyirI-1" edge="1">
          <mxGeometry width="50" height="50" relative="1" as="geometry">
            <mxPoint x="390" y="690" as="sourcePoint" />
            <mxPoint x="440" y="640" as="targetPoint" />
          </mxGeometry>
        </mxCell>
        <mxCell id="ulvikcTlUFl-ReV67SD8-21" value="" style="endArrow=none;html=1;rounded=0;entryX=0.986;entryY=0.274;entryDx=0;entryDy=0;entryPerimeter=0;exitX=0.5;exitY=0;exitDx=0;exitDy=0;" parent="1" source="ulvikcTlUFl-ReV67SD8-17" target="YJhQJvPEeClIZDTAyirI-1" edge="1">
          <mxGeometry width="50" height="50" relative="1" as="geometry">
            <mxPoint x="390" y="690" as="sourcePoint" />
            <mxPoint x="440" y="640" as="targetPoint" />
            <Array as="points">
              <mxPoint x="462" y="600" />
              <mxPoint x="417" y="600" />
            </Array>
          </mxGeometry>
        </mxCell>
        <mxCell id="ulvikcTlUFl-ReV67SD8-22" value="" style="endArrow=none;html=1;rounded=0;entryX=0.99;entryY=0.434;entryDx=0;entryDy=0;entryPerimeter=0;exitX=0.437;exitY=-0.057;exitDx=0;exitDy=0;exitPerimeter=0;" parent="1" source="ulvikcTlUFl-ReV67SD8-10" target="YJhQJvPEeClIZDTAyirI-1" edge="1">
          <mxGeometry width="50" height="50" relative="1" as="geometry">
            <mxPoint x="390" y="680" as="sourcePoint" />
            <mxPoint x="440" y="630" as="targetPoint" />
            <Array as="points">
              <mxPoint x="250" y="630" />
              <mxPoint x="378" y="630" />
            </Array>
          </mxGeometry>
        </mxCell>
        <mxCell id="ulvikcTlUFl-ReV67SD8-23" value="" style="endArrow=none;html=1;rounded=0;entryX=0.994;entryY=0.486;entryDx=0;entryDy=0;entryPerimeter=0;exitX=0.5;exitY=1;exitDx=0;exitDy=0;" parent="1" source="ulvikcTlUFl-ReV67SD8-9" target="YJhQJvPEeClIZDTAyirI-1" edge="1">
          <mxGeometry width="50" height="50" relative="1" as="geometry">
            <mxPoint x="320" y="630" as="sourcePoint" />
            <mxPoint x="370" y="580" as="targetPoint" />
            <Array as="points">
              <mxPoint x="462" y="780" />
              <mxPoint x="210" y="780" />
              <mxPoint x="210" y="620" />
              <mxPoint x="365" y="620" />
            </Array>
          </mxGeometry>
        </mxCell>
        <mxCell id="ulvikcTlUFl-ReV67SD8-24" value="" style="endArrow=none;html=1;rounded=0;entryX=0.5;entryY=1;entryDx=0;entryDy=0;exitX=0.005;exitY=0.166;exitDx=0;exitDy=0;exitPerimeter=0;" parent="1" source="YJhQJvPEeClIZDTAyirI-1" target="ulvikcTlUFl-ReV67SD8-4" edge="1">
          <mxGeometry width="50" height="50" relative="1" as="geometry">
            <mxPoint x="360" y="710" as="sourcePoint" />
            <mxPoint x="410" y="660" as="targetPoint" />
            <Array as="points">
              <mxPoint x="540" y="382" />
              <mxPoint x="540" y="810" />
              <mxPoint x="312" y="810" />
            </Array>
          </mxGeometry>
        </mxCell>
        <mxCell id="ulvikcTlUFl-ReV67SD8-51" value="" style="endArrow=none;html=1;rounded=0;exitX=0.5;exitY=1;exitDx=0;exitDy=0;" parent="1" source="ulvikcTlUFl-ReV67SD8-45" edge="1">
          <mxGeometry width="50" height="50" relative="1" as="geometry">
            <mxPoint x="300" y="730" as="sourcePoint" />
            <mxPoint x="250" y="630" as="targetPoint" />
            <Array as="points">
              <mxPoint x="255" y="1000" />
              <mxPoint x="190" y="1000" />
              <mxPoint x="190" y="630" />
            </Array>
          </mxGeometry>
        </mxCell>
        <mxCell id="ulvikcTlUFl-ReV67SD8-52" value="" style="ellipse;whiteSpace=wrap;html=1;aspect=fixed;fillColor=#000000;" parent="1" vertex="1">
          <mxGeometry x="245" y="626" width="10" height="10" as="geometry" />
        </mxCell>
        <mxCell id="ulvikcTlUFl-ReV67SD8-53" value="" style="endArrow=none;html=1;rounded=0;entryX=0.5;entryY=1;entryDx=0;entryDy=0;" parent="1" target="ulvikcTlUFl-ReV67SD8-47" edge="1">
          <mxGeometry width="50" height="50" relative="1" as="geometry">
            <mxPoint x="210" y="780" as="sourcePoint" />
            <mxPoint x="350" y="810" as="targetPoint" />
            <Array as="points">
              <mxPoint x="210" y="990" />
              <mxPoint x="285" y="990" />
            </Array>
          </mxGeometry>
        </mxCell>
        <mxCell id="epr88A97v0yAaG73trii-1" value="" style="endArrow=none;html=1;rounded=0;exitX=0.5;exitY=1;exitDx=0;exitDy=0;entryX=0.441;entryY=-0.017;entryDx=0;entryDy=0;entryPerimeter=0;" parent="1" source="ulvikcTlUFl-ReV67SD8-49" target="ulvikcTlUFl-ReV67SD8-13" edge="1">
          <mxGeometry width="50" height="50" relative="1" as="geometry">
            <mxPoint x="410" y="900" as="sourcePoint" />
            <mxPoint x="460" y="850" as="targetPoint" />
            <Array as="points">
              <mxPoint x="345" y="990" />
              <mxPoint x="590" y="990" />
              <mxPoint x="590" y="640" />
              <mxPoint x="340" y="640" />
            </Array>
          </mxGeometry>
        </mxCell>
        <mxCell id="epr88A97v0yAaG73trii-2" value="Thermistor Module" style="rounded=0;whiteSpace=wrap;html=1;" parent="1" vertex="1">
          <mxGeometry x="390" y="860" width="120" height="110" as="geometry" />
        </mxCell>
        <mxCell id="ulvikcTlUFl-ReV67SD8-25" value="MQ - 2 Gas Sensor Module" style="rounded=0;whiteSpace=wrap;html=1;" parent="1" vertex="1">
          <mxGeometry x="240" y="860" width="120" height="110" as="geometry" />
        </mxCell>
        <mxCell id="ulvikcTlUFl-ReV67SD8-45" value="VCC" style="text;html=1;strokeColor=default;fillColor=none;align=center;verticalAlign=middle;whiteSpace=wrap;rounded=0;" parent="1" vertex="1">
          <mxGeometry x="240" y="950" width="30" height="20" as="geometry" />
        </mxCell>
        <mxCell id="ulvikcTlUFl-ReV67SD8-47" value="GND" style="text;html=1;strokeColor=default;fillColor=none;align=center;verticalAlign=middle;whiteSpace=wrap;rounded=0;" parent="1" vertex="1">
          <mxGeometry x="270" y="950" width="30" height="20" as="geometry" />
        </mxCell>
        <mxCell id="ulvikcTlUFl-ReV67SD8-48" value="DO" style="text;html=1;strokeColor=default;fillColor=none;align=center;verticalAlign=middle;whiteSpace=wrap;rounded=0;" parent="1" vertex="1">
          <mxGeometry x="300" y="950" width="30" height="20" as="geometry" />
        </mxCell>
        <mxCell id="ulvikcTlUFl-ReV67SD8-49" value="AO" style="text;html=1;strokeColor=default;fillColor=none;align=center;verticalAlign=middle;whiteSpace=wrap;rounded=0;" parent="1" vertex="1">
          <mxGeometry x="330" y="950" width="30" height="20" as="geometry" />
        </mxCell>
        <mxCell id="epr88A97v0yAaG73trii-3" value="VCC" style="text;html=1;strokeColor=default;fillColor=none;align=center;verticalAlign=middle;whiteSpace=wrap;rounded=0;" parent="1" vertex="1">
          <mxGeometry x="390" y="950" width="30" height="20" as="geometry" />
        </mxCell>
        <mxCell id="epr88A97v0yAaG73trii-4" value="GND" style="text;html=1;strokeColor=default;fillColor=none;align=center;verticalAlign=middle;whiteSpace=wrap;rounded=0;" parent="1" vertex="1">
          <mxGeometry x="420" y="950" width="30" height="20" as="geometry" />
        </mxCell>
        <mxCell id="epr88A97v0yAaG73trii-5" value="DO" style="text;html=1;strokeColor=default;fillColor=none;align=center;verticalAlign=middle;whiteSpace=wrap;rounded=0;" parent="1" vertex="1">
          <mxGeometry x="450" y="950" width="30" height="20" as="geometry" />
        </mxCell>
        <mxCell id="epr88A97v0yAaG73trii-6" value="AO" style="text;html=1;strokeColor=default;fillColor=none;align=center;verticalAlign=middle;whiteSpace=wrap;rounded=0;" parent="1" vertex="1">
          <mxGeometry x="480" y="950" width="30" height="20" as="geometry" />
        </mxCell>
        <mxCell id="epr88A97v0yAaG73trii-7" value="" style="endArrow=none;html=1;rounded=0;entryX=0.5;entryY=1;entryDx=0;entryDy=0;" parent="1" target="epr88A97v0yAaG73trii-3" edge="1">
          <mxGeometry width="50" height="50" relative="1" as="geometry">
            <mxPoint x="190" y="1000" as="sourcePoint" />
            <mxPoint x="550" y="850" as="targetPoint" />
            <Array as="points">
              <mxPoint x="190" y="1010" />
              <mxPoint x="405" y="1010" />
            </Array>
          </mxGeometry>
        </mxCell>
        <mxCell id="epr88A97v0yAaG73trii-8" value="" style="ellipse;whiteSpace=wrap;html=1;aspect=fixed;fillColor=#000000;" parent="1" vertex="1">
          <mxGeometry x="185" y="995" width="10" height="10" as="geometry" />
        </mxCell>
        <mxCell id="epr88A97v0yAaG73trii-9" value="" style="endArrow=none;html=1;rounded=0;entryX=0.429;entryY=1.037;entryDx=0;entryDy=0;entryPerimeter=0;" parent="1" target="epr88A97v0yAaG73trii-4" edge="1">
          <mxGeometry width="50" height="50" relative="1" as="geometry">
            <mxPoint x="210" y="990" as="sourcePoint" />
            <mxPoint x="360" y="950" as="targetPoint" />
            <Array as="points">
              <mxPoint x="210" y="1020" />
              <mxPoint x="435" y="1020" />
            </Array>
          </mxGeometry>
        </mxCell>
        <mxCell id="epr88A97v0yAaG73trii-10" value="" style="ellipse;whiteSpace=wrap;html=1;aspect=fixed;fillColor=#000000;" parent="1" vertex="1">
          <mxGeometry x="206" y="985" width="10" height="10" as="geometry" />
        </mxCell>
        <mxCell id="epr88A97v0yAaG73trii-11" value="" style="endArrow=none;html=1;rounded=0;entryX=0.5;entryY=1;entryDx=0;entryDy=0;exitX=0.5;exitY=0;exitDx=0;exitDy=0;" parent="1" source="ulvikcTlUFl-ReV67SD8-12" target="epr88A97v0yAaG73trii-6" edge="1">
          <mxGeometry width="50" height="50" relative="1" as="geometry">
            <mxPoint x="360" y="990" as="sourcePoint" />
            <mxPoint x="410" y="940" as="targetPoint" />
            <Array as="points">
              <mxPoint x="312" y="610" />
              <mxPoint x="620" y="610" />
              <mxPoint x="620" y="1000" />
              <mxPoint x="495" y="1000" />
            </Array>
          </mxGeometry>
        </mxCell>
        <mxCell id="xKp3rlP3vjCes5W-byVu-1" value="" style="pointerEvents=1;verticalLabelPosition=bottom;shadow=0;dashed=0;align=center;html=1;verticalAlign=top;shape=mxgraph.electrical.resistors.potentiometer_1;direction=north;" parent="1" vertex="1">
          <mxGeometry x="100" y="890" width="40" height="100" as="geometry" />
        </mxCell>
        <mxCell id="xKp3rlP3vjCes5W-byVu-2" value="" style="endArrow=none;html=1;rounded=0;exitX=0.5;exitY=1;exitDx=0;exitDy=0;exitPerimeter=0;entryX=0.5;entryY=0;entryDx=0;entryDy=0;" parent="1" source="xKp3rlP3vjCes5W-byVu-1" target="ulvikcTlUFl-ReV67SD8-11" edge="1">
          <mxGeometry width="50" height="50" relative="1" as="geometry">
            <mxPoint x="200" y="800" as="sourcePoint" />
            <mxPoint x="170" y="640" as="targetPoint" />
            <Array as="points">
              <mxPoint x="170" y="940" />
              <mxPoint x="170" y="640" />
              <mxPoint x="282" y="640" />
            </Array>
          </mxGeometry>
        </mxCell>
        <mxCell id="xKp3rlP3vjCes5W-byVu-4" value="" style="endArrow=none;html=1;rounded=0;exitX=0;exitY=0.25;exitDx=0;exitDy=0;exitPerimeter=0;entryX=0;entryY=0.5;entryDx=0;entryDy=0;" parent="1" source="xKp3rlP3vjCes5W-byVu-1" target="epr88A97v0yAaG73trii-10" edge="1">
          <mxGeometry width="50" height="50" relative="1" as="geometry">
            <mxPoint x="200" y="940" as="sourcePoint" />
            <mxPoint x="250" y="890" as="targetPoint" />
          </mxGeometry>
        </mxCell>
        <mxCell id="xKp3rlP3vjCes5W-byVu-5" value="" style="endArrow=none;html=1;rounded=0;exitX=1;exitY=0.25;exitDx=0;exitDy=0;exitPerimeter=0;" parent="1" source="xKp3rlP3vjCes5W-byVu-1" edge="1">
          <mxGeometry width="50" height="50" relative="1" as="geometry">
            <mxPoint x="250" y="840" as="sourcePoint" />
            <mxPoint x="190" y="890" as="targetPoint" />
          </mxGeometry>
        </mxCell>
        <mxCell id="xKp3rlP3vjCes5W-byVu-6" value="" style="ellipse;whiteSpace=wrap;html=1;aspect=fixed;fillColor=#000000;" parent="1" vertex="1">
          <mxGeometry x="185" y="886" width="10" height="10" as="geometry" />
        </mxCell>
        <mxCell id="xKp3rlP3vjCes5W-byVu-7" value="Gas Sensor Potentiometer" style="text;html=1;strokeColor=none;fillColor=none;align=center;verticalAlign=middle;whiteSpace=wrap;rounded=0;" parent="1" vertex="1">
          <mxGeometry x="85" y="995" width="100" height="30" as="geometry" />
        </mxCell>
        <mxCell id="xKp3rlP3vjCes5W-byVu-8" value="" style="pointerEvents=1;verticalLabelPosition=bottom;shadow=0;dashed=0;align=center;html=1;verticalAlign=top;shape=mxgraph.electrical.resistors.potentiometer_1;direction=north;" parent="1" vertex="1">
          <mxGeometry x="20" y="890" width="40" height="100" as="geometry" />
        </mxCell>
        <mxCell id="xKp3rlP3vjCes5W-byVu-9" value="" style="endArrow=none;html=1;rounded=0;exitX=0.5;exitY=1;exitDx=0;exitDy=0;exitPerimeter=0;entryX=0.435;entryY=-0.006;entryDx=0;entryDy=0;entryPerimeter=0;" parent="1" source="xKp3rlP3vjCes5W-byVu-8" target="ulvikcTlUFl-ReV67SD8-14" edge="1">
          <mxGeometry width="50" height="50" relative="1" as="geometry">
            <mxPoint x="64" y="940" as="sourcePoint" />
            <mxPoint x="206" y="660" as="targetPoint" />
            <Array as="points">
              <mxPoint x="80" y="940" />
              <mxPoint x="80" y="650" />
              <mxPoint x="370" y="650" />
            </Array>
          </mxGeometry>
        </mxCell>
        <mxCell id="xKp3rlP3vjCes5W-byVu-11" value="" style="endArrow=none;html=1;rounded=0;exitX=0;exitY=0.25;exitDx=0;exitDy=0;exitPerimeter=0;entryX=0;entryY=0.25;entryDx=0;entryDy=0;entryPerimeter=0;" parent="1" source="xKp3rlP3vjCes5W-byVu-8" target="xKp3rlP3vjCes5W-byVu-1" edge="1">
          <mxGeometry width="50" height="50" relative="1" as="geometry">
            <mxPoint x="100" y="1000" as="sourcePoint" />
            <mxPoint x="150" y="950" as="targetPoint" />
          </mxGeometry>
        </mxCell>
        <mxCell id="xKp3rlP3vjCes5W-byVu-12" value="Thermistor Potentiometer&amp;nbsp;" style="text;html=1;strokeColor=none;fillColor=none;align=center;verticalAlign=middle;whiteSpace=wrap;rounded=0;" parent="1" vertex="1">
          <mxGeometry x="-10" y="995" width="100" height="30" as="geometry" />
        </mxCell>
        <mxCell id="xKp3rlP3vjCes5W-byVu-13" value="" style="endArrow=none;html=1;rounded=0;exitX=1;exitY=0.25;exitDx=0;exitDy=0;exitPerimeter=0;entryX=1;entryY=0.25;entryDx=0;entryDy=0;entryPerimeter=0;" parent="1" source="xKp3rlP3vjCes5W-byVu-8" target="xKp3rlP3vjCes5W-byVu-1" edge="1">
          <mxGeometry width="50" height="50" relative="1" as="geometry">
            <mxPoint x="110" y="930" as="sourcePoint" />
            <mxPoint x="160" y="880" as="targetPoint" />
          </mxGeometry>
        </mxCell>
        <mxCell id="xKp3rlP3vjCes5W-byVu-14" value="" style="ellipse;whiteSpace=wrap;html=1;aspect=fixed;fillColor=#000000;" parent="1" vertex="1">
          <mxGeometry x="106" y="885" width="10" height="10" as="geometry" />
        </mxCell>
        <mxCell id="xKp3rlP3vjCes5W-byVu-15" value="&amp;nbsp;2 Chanel Relay Module" style="rounded=0;whiteSpace=wrap;html=1;" parent="1" vertex="1">
          <mxGeometry x="-110" y="710" width="120" height="110" as="geometry" />
        </mxCell>
        <mxCell id="xKp3rlP3vjCes5W-byVu-16" value="VCC" style="text;html=1;strokeColor=default;fillColor=none;align=center;verticalAlign=middle;whiteSpace=wrap;rounded=0;" parent="1" vertex="1">
          <mxGeometry x="-110" y="800" width="30" height="20" as="geometry" />
        </mxCell>
        <mxCell id="xKp3rlP3vjCes5W-byVu-17" value="IN2" style="text;html=1;strokeColor=default;fillColor=none;align=center;verticalAlign=middle;whiteSpace=wrap;rounded=0;" parent="1" vertex="1">
          <mxGeometry x="-80" y="800" width="30" height="20" as="geometry" />
        </mxCell>
        <mxCell id="xKp3rlP3vjCes5W-byVu-18" value="IN1" style="text;html=1;strokeColor=default;fillColor=none;align=center;verticalAlign=middle;whiteSpace=wrap;rounded=0;" parent="1" vertex="1">
          <mxGeometry x="-50" y="800" width="30" height="20" as="geometry" />
        </mxCell>
        <mxCell id="xKp3rlP3vjCes5W-byVu-19" value="GND" style="text;html=1;strokeColor=default;fillColor=none;align=center;verticalAlign=middle;whiteSpace=wrap;rounded=0;" parent="1" vertex="1">
          <mxGeometry x="-20" y="800" width="30" height="20" as="geometry" />
        </mxCell>
        <mxCell id="xKp3rlP3vjCes5W-byVu-20" value="" style="endArrow=none;html=1;rounded=0;exitX=0.5;exitY=1;exitDx=0;exitDy=0;" parent="1" source="xKp3rlP3vjCes5W-byVu-16" edge="1">
          <mxGeometry width="50" height="50" relative="1" as="geometry">
            <mxPoint x="120" y="800" as="sourcePoint" />
            <mxPoint x="190" y="840" as="targetPoint" />
            <Array as="points">
              <mxPoint x="-95" y="840" />
            </Array>
          </mxGeometry>
        </mxCell>
        <mxCell id="xKp3rlP3vjCes5W-byVu-21" value="" style="ellipse;whiteSpace=wrap;html=1;aspect=fixed;fillColor=#000000;" parent="1" vertex="1">
          <mxGeometry x="185" y="836" width="10" height="10" as="geometry" />
        </mxCell>
        <mxCell id="xKp3rlP3vjCes5W-byVu-22" value="" style="ellipse;whiteSpace=wrap;html=1;aspect=fixed;fillColor=#000000;" parent="1" vertex="1">
          <mxGeometry x="206" y="775" width="10" height="10" as="geometry" />
        </mxCell>
        <mxCell id="xKp3rlP3vjCes5W-byVu-23" value="" style="endArrow=none;html=1;rounded=0;entryX=0;entryY=0.5;entryDx=0;entryDy=0;exitX=0.5;exitY=1;exitDx=0;exitDy=0;" parent="1" source="xKp3rlP3vjCes5W-byVu-19" target="xKp3rlP3vjCes5W-byVu-22" edge="1">
          <mxGeometry width="50" height="50" relative="1" as="geometry">
            <mxPoint x="110" y="850" as="sourcePoint" />
            <mxPoint x="160" y="800" as="targetPoint" />
            <Array as="points">
              <mxPoint x="-5" y="830" />
              <mxPoint x="120" y="830" />
              <mxPoint x="120" y="780" />
            </Array>
          </mxGeometry>
        </mxCell>
        <mxCell id="xKp3rlP3vjCes5W-byVu-24" value="" style="endArrow=none;html=1;rounded=0;exitX=0.5;exitY=1;exitDx=0;exitDy=0;entryX=0.994;entryY=0.325;entryDx=0;entryDy=0;entryPerimeter=0;" parent="1" source="xKp3rlP3vjCes5W-byVu-18" target="YJhQJvPEeClIZDTAyirI-1" edge="1">
          <mxGeometry width="50" height="50" relative="1" as="geometry">
            <mxPoint x="110" y="810" as="sourcePoint" />
            <mxPoint x="406" y="582" as="targetPoint" />
            <Array as="points">
              <mxPoint x="-35" y="880" />
              <mxPoint x="-150" y="880" />
              <mxPoint x="-150" y="690" />
              <mxPoint x="-10" y="690" />
              <mxPoint x="-10" y="600" />
              <mxPoint x="405" y="600" />
            </Array>
          </mxGeometry>
        </mxCell>
        <mxCell id="xKp3rlP3vjCes5W-byVu-25" value="" style="endArrow=none;html=1;rounded=0;exitX=0.5;exitY=1;exitDx=0;exitDy=0;entryX=0.987;entryY=0.386;entryDx=0;entryDy=0;entryPerimeter=0;" parent="1" source="xKp3rlP3vjCes5W-byVu-17" target="YJhQJvPEeClIZDTAyirI-1" edge="1">
          <mxGeometry width="50" height="50" relative="1" as="geometry">
            <mxPoint x="-65" y="830" as="sourcePoint" />
            <mxPoint x="375" y="593" as="targetPoint" />
            <Array as="points">
              <mxPoint x="-65" y="900" />
              <mxPoint x="-160" y="900" />
              <mxPoint x="-160" y="680" />
              <mxPoint x="-30" y="680" />
              <mxPoint x="-30" y="590" />
              <mxPoint x="390" y="590" />
            </Array>
          </mxGeometry>
        </mxCell>
        <mxCell id="JEwwXP4cvRhNm4LrkAlZ-1" value="" style="group" parent="1" vertex="1" connectable="0">
          <mxGeometry x="-40" y="440" width="240" height="100" as="geometry" />
        </mxCell>
        <mxCell id="JEwwXP4cvRhNm4LrkAlZ-2" value="&lt;h2 style=&quot;box-sizing: border-box; margin: 0px; padding: 0px; border: 0px; font-family: Arial, Helvetica, sans-serif; line-height: 1; color: rgb(34, 34, 34); text-align: start; background-color: rgb(255, 255, 255);&quot; class=&quot;elementor-heading-title elementor-size-default&quot;&gt;&lt;font style=&quot;font-size: 14px;&quot;&gt;74hc595&lt;/font&gt;&lt;/h2&gt;" style="rounded=0;whiteSpace=wrap;html=1;" parent="JEwwXP4cvRhNm4LrkAlZ-1" vertex="1">
          <mxGeometry width="240" height="100" as="geometry" />
        </mxCell>
        <mxCell id="JEwwXP4cvRhNm4LrkAlZ-3" value="Q1" style="text;html=1;strokeColor=default;fillColor=none;align=center;verticalAlign=middle;whiteSpace=wrap;rounded=0;" parent="JEwwXP4cvRhNm4LrkAlZ-1" vertex="1">
          <mxGeometry y="80" width="30" height="20" as="geometry" />
        </mxCell>
        <mxCell id="JEwwXP4cvRhNm4LrkAlZ-4" value="Q2" style="text;html=1;strokeColor=default;fillColor=none;align=center;verticalAlign=middle;whiteSpace=wrap;rounded=0;" parent="JEwwXP4cvRhNm4LrkAlZ-1" vertex="1">
          <mxGeometry x="30" y="80" width="30" height="20" as="geometry" />
        </mxCell>
        <mxCell id="JEwwXP4cvRhNm4LrkAlZ-5" value="Q3" style="text;html=1;strokeColor=default;fillColor=none;align=center;verticalAlign=middle;whiteSpace=wrap;rounded=0;" parent="JEwwXP4cvRhNm4LrkAlZ-1" vertex="1">
          <mxGeometry x="60" y="80" width="30" height="20" as="geometry" />
        </mxCell>
        <mxCell id="JEwwXP4cvRhNm4LrkAlZ-6" value="Q4" style="text;html=1;strokeColor=default;fillColor=none;align=center;verticalAlign=middle;whiteSpace=wrap;rounded=0;" parent="JEwwXP4cvRhNm4LrkAlZ-1" vertex="1">
          <mxGeometry x="90" y="80" width="30" height="20" as="geometry" />
        </mxCell>
        <mxCell id="JEwwXP4cvRhNm4LrkAlZ-7" value="Q5" style="text;html=1;strokeColor=default;fillColor=none;align=center;verticalAlign=middle;whiteSpace=wrap;rounded=0;" parent="JEwwXP4cvRhNm4LrkAlZ-1" vertex="1">
          <mxGeometry x="120" y="80" width="30" height="20" as="geometry" />
        </mxCell>
        <mxCell id="JEwwXP4cvRhNm4LrkAlZ-8" value="Q6" style="text;html=1;strokeColor=default;fillColor=none;align=center;verticalAlign=middle;whiteSpace=wrap;rounded=0;" parent="JEwwXP4cvRhNm4LrkAlZ-1" vertex="1">
          <mxGeometry x="150" y="80" width="30" height="20" as="geometry" />
        </mxCell>
        <mxCell id="JEwwXP4cvRhNm4LrkAlZ-9" value="Q7" style="text;html=1;strokeColor=default;fillColor=none;align=center;verticalAlign=middle;whiteSpace=wrap;rounded=0;" parent="JEwwXP4cvRhNm4LrkAlZ-1" vertex="1">
          <mxGeometry x="180" y="80" width="30" height="20" as="geometry" />
        </mxCell>
        <mxCell id="JEwwXP4cvRhNm4LrkAlZ-10" value="GND" style="text;html=1;strokeColor=default;fillColor=none;align=center;verticalAlign=middle;whiteSpace=wrap;rounded=0;" parent="JEwwXP4cvRhNm4LrkAlZ-1" vertex="1">
          <mxGeometry x="210" y="80" width="30" height="20" as="geometry" />
        </mxCell>
        <mxCell id="JEwwXP4cvRhNm4LrkAlZ-11" value="VCC" style="text;html=1;strokeColor=default;fillColor=none;align=center;verticalAlign=middle;whiteSpace=wrap;rounded=0;" parent="JEwwXP4cvRhNm4LrkAlZ-1" vertex="1">
          <mxGeometry width="30" height="20" as="geometry" />
        </mxCell>
        <mxCell id="JEwwXP4cvRhNm4LrkAlZ-12" value="Q0" style="text;html=1;strokeColor=default;fillColor=none;align=center;verticalAlign=middle;whiteSpace=wrap;rounded=0;" parent="JEwwXP4cvRhNm4LrkAlZ-1" vertex="1">
          <mxGeometry x="30" width="30" height="20" as="geometry" />
        </mxCell>
        <mxCell id="JEwwXP4cvRhNm4LrkAlZ-13" value="DS" style="text;html=1;strokeColor=default;fillColor=none;align=center;verticalAlign=middle;whiteSpace=wrap;rounded=0;" parent="JEwwXP4cvRhNm4LrkAlZ-1" vertex="1">
          <mxGeometry x="60" width="30" height="20" as="geometry" />
        </mxCell>
        <mxCell id="JEwwXP4cvRhNm4LrkAlZ-14" value="OE" style="text;html=1;strokeColor=default;fillColor=none;align=center;verticalAlign=middle;whiteSpace=wrap;rounded=0;" parent="JEwwXP4cvRhNm4LrkAlZ-1" vertex="1">
          <mxGeometry x="90" width="30" height="20" as="geometry" />
        </mxCell>
        <mxCell id="JEwwXP4cvRhNm4LrkAlZ-15" value="ST" style="text;html=1;strokeColor=default;fillColor=none;align=center;verticalAlign=middle;whiteSpace=wrap;rounded=0;" parent="JEwwXP4cvRhNm4LrkAlZ-1" vertex="1">
          <mxGeometry x="120" width="30" height="20" as="geometry" />
        </mxCell>
        <mxCell id="JEwwXP4cvRhNm4LrkAlZ-16" value="SH" style="text;html=1;strokeColor=default;fillColor=none;align=center;verticalAlign=middle;whiteSpace=wrap;rounded=0;" parent="JEwwXP4cvRhNm4LrkAlZ-1" vertex="1">
          <mxGeometry x="150" width="30" height="20" as="geometry" />
        </mxCell>
        <mxCell id="JEwwXP4cvRhNm4LrkAlZ-17" value="MR" style="text;html=1;strokeColor=default;fillColor=none;align=center;verticalAlign=middle;whiteSpace=wrap;rounded=0;" parent="JEwwXP4cvRhNm4LrkAlZ-1" vertex="1">
          <mxGeometry x="180" width="30" height="20" as="geometry" />
        </mxCell>
        <mxCell id="JEwwXP4cvRhNm4LrkAlZ-18" value="Q7" style="text;html=1;strokeColor=default;fillColor=none;align=center;verticalAlign=middle;whiteSpace=wrap;rounded=0;" parent="JEwwXP4cvRhNm4LrkAlZ-1" vertex="1">
          <mxGeometry x="210" width="30" height="20" as="geometry" />
        </mxCell>
        <mxCell id="JEwwXP4cvRhNm4LrkAlZ-40" value="GAS LEVEL" style="text;html=1;strokeColor=none;fillColor=none;align=center;verticalAlign=middle;whiteSpace=wrap;rounded=0;" parent="JEwwXP4cvRhNm4LrkAlZ-1" vertex="1">
          <mxGeometry x="35" y="60" width="80" height="30" as="geometry" />
        </mxCell>
        <mxCell id="JEwwXP4cvRhNm4LrkAlZ-60" value="TEMP LEVEL" style="text;html=1;strokeColor=none;fillColor=none;align=center;verticalAlign=middle;whiteSpace=wrap;rounded=0;" parent="JEwwXP4cvRhNm4LrkAlZ-1" vertex="1">
          <mxGeometry x="125" y="60" width="80" height="30" as="geometry" />
        </mxCell>
        <mxCell id="JEwwXP4cvRhNm4LrkAlZ-19" value="" style="endArrow=none;html=1;rounded=0;exitX=0.5;exitY=0;exitDx=0;exitDy=0;entryX=0.5;entryY=0;entryDx=0;entryDy=0;" parent="1" source="ulvikcTlUFl-ReV67SD8-52" target="JEwwXP4cvRhNm4LrkAlZ-11" edge="1">
          <mxGeometry width="50" height="50" relative="1" as="geometry">
            <mxPoint x="150" y="600" as="sourcePoint" />
            <mxPoint x="200" y="550" as="targetPoint" />
            <Array as="points">
              <mxPoint x="250" y="560" />
              <mxPoint x="220" y="560" />
              <mxPoint x="220" y="410" />
              <mxPoint x="-25" y="410" />
            </Array>
          </mxGeometry>
        </mxCell>
        <mxCell id="JEwwXP4cvRhNm4LrkAlZ-20" value="" style="endArrow=none;html=1;rounded=0;exitX=0.5;exitY=0;exitDx=0;exitDy=0;" parent="1" source="JEwwXP4cvRhNm4LrkAlZ-17" edge="1">
          <mxGeometry width="50" height="50" relative="1" as="geometry">
            <mxPoint x="100" y="500" as="sourcePoint" />
            <mxPoint x="155" y="410" as="targetPoint" />
          </mxGeometry>
        </mxCell>
        <mxCell id="JEwwXP4cvRhNm4LrkAlZ-21" value="" style="ellipse;whiteSpace=wrap;html=1;aspect=fixed;fillColor=#000000;" parent="1" vertex="1">
          <mxGeometry x="151" y="405" width="10" height="10" as="geometry" />
        </mxCell>
        <mxCell id="JEwwXP4cvRhNm4LrkAlZ-22" value="" style="endArrow=none;html=1;rounded=0;exitX=0.5;exitY=0;exitDx=0;exitDy=0;entryX=0.996;entryY=0.599;entryDx=0;entryDy=0;entryPerimeter=0;" parent="1" edge="1">
          <mxGeometry width="50" height="50" relative="1" as="geometry">
            <mxPoint x="36" y="440" as="sourcePoint" />
            <mxPoint x="338.40999999999985" y="543.5116799999998" as="targetPoint" />
            <Array as="points">
              <mxPoint x="36" y="400" />
              <mxPoint x="211" y="400" />
              <mxPoint x="211" y="580" />
              <mxPoint x="338" y="580" />
            </Array>
          </mxGeometry>
        </mxCell>
        <mxCell id="JEwwXP4cvRhNm4LrkAlZ-23" value="" style="endArrow=none;html=1;rounded=0;exitX=0.5;exitY=0;exitDx=0;exitDy=0;entryX=0.989;entryY=0.65;entryDx=0;entryDy=0;entryPerimeter=0;" parent="1" source="JEwwXP4cvRhNm4LrkAlZ-16" target="YJhQJvPEeClIZDTAyirI-1" edge="1">
          <mxGeometry width="50" height="50" relative="1" as="geometry">
            <mxPoint x="170" y="540" as="sourcePoint" />
            <mxPoint x="220" y="490" as="targetPoint" />
            <Array as="points">
              <mxPoint x="125" y="390" />
              <mxPoint x="230" y="390" />
              <mxPoint x="230" y="570" />
              <mxPoint x="325" y="570" />
            </Array>
          </mxGeometry>
        </mxCell>
        <mxCell id="JEwwXP4cvRhNm4LrkAlZ-24" value="" style="endArrow=none;html=1;rounded=0;exitX=0.5;exitY=0;exitDx=0;exitDy=0;entryX=0.994;entryY=0.707;entryDx=0;entryDy=0;entryPerimeter=0;" parent="1" source="JEwwXP4cvRhNm4LrkAlZ-15" target="YJhQJvPEeClIZDTAyirI-1" edge="1">
          <mxGeometry width="50" height="50" relative="1" as="geometry">
            <mxPoint x="170" y="540" as="sourcePoint" />
            <mxPoint x="240" y="550" as="targetPoint" />
            <Array as="points">
              <mxPoint x="95" y="380" />
              <mxPoint x="240" y="380" />
              <mxPoint x="240" y="550" />
              <mxPoint x="311" y="550" />
            </Array>
          </mxGeometry>
        </mxCell>
        <mxCell id="JEwwXP4cvRhNm4LrkAlZ-25" value="" style="endArrow=none;html=1;rounded=0;entryX=0.5;entryY=1;entryDx=0;entryDy=0;" parent="1" target="JEwwXP4cvRhNm4LrkAlZ-10" edge="1">
          <mxGeometry width="50" height="50" relative="1" as="geometry">
            <mxPoint x="210" y="620" as="sourcePoint" />
            <mxPoint x="110" y="550" as="targetPoint" />
            <Array as="points">
              <mxPoint x="185" y="620" />
            </Array>
          </mxGeometry>
        </mxCell>
        <mxCell id="JEwwXP4cvRhNm4LrkAlZ-26" value="" style="ellipse;whiteSpace=wrap;html=1;aspect=fixed;fillColor=#000000;" parent="1" vertex="1">
          <mxGeometry x="206" y="616" width="10" height="10" as="geometry" />
        </mxCell>
        <mxCell id="JEwwXP4cvRhNm4LrkAlZ-29" value="" style="endArrow=none;html=1;rounded=0;entryX=-0.046;entryY=0.369;entryDx=0;entryDy=0;entryPerimeter=0;" parent="1" target="JEwwXP4cvRhNm4LrkAlZ-26" edge="1">
          <mxGeometry width="50" height="50" relative="1" as="geometry">
            <mxPoint x="-60" y="580" as="sourcePoint" />
            <mxPoint x="190" y="620" as="targetPoint" />
            <Array as="points">
              <mxPoint x="160" y="580" />
              <mxPoint x="160" y="620" />
              <mxPoint x="180" y="620" />
            </Array>
          </mxGeometry>
        </mxCell>
        <mxCell id="JEwwXP4cvRhNm4LrkAlZ-30" value="" style="verticalLabelPosition=bottom;shadow=0;dashed=0;align=center;html=1;verticalAlign=top;shape=mxgraph.electrical.opto_electronics.led_2;pointerEvents=1;fillColor=#FF2212;rotation=90;" parent="1" vertex="1">
          <mxGeometry x="-107" y="480" width="40" height="30" as="geometry" />
        </mxCell>
        <mxCell id="JEwwXP4cvRhNm4LrkAlZ-31" value="" style="endArrow=none;html=1;rounded=0;exitX=0.5;exitY=0;exitDx=0;exitDy=0;entryX=0;entryY=0.57;entryDx=0;entryDy=0;entryPerimeter=0;" parent="1" source="JEwwXP4cvRhNm4LrkAlZ-12" target="JEwwXP4cvRhNm4LrkAlZ-30" edge="1">
          <mxGeometry width="50" height="50" relative="1" as="geometry">
            <mxPoint x="-100" y="520" as="sourcePoint" />
            <mxPoint x="-90" y="480" as="targetPoint" />
            <Array as="points">
              <mxPoint x="5" y="430" />
              <mxPoint x="-90" y="430" />
            </Array>
          </mxGeometry>
        </mxCell>
        <mxCell id="JEwwXP4cvRhNm4LrkAlZ-33" value="" style="endArrow=none;html=1;rounded=0;exitX=1;exitY=0.57;exitDx=0;exitDy=0;exitPerimeter=0;" parent="1" source="JEwwXP4cvRhNm4LrkAlZ-30" edge="1">
          <mxGeometry width="50" height="50" relative="1" as="geometry">
            <mxPoint x="-100" y="520" as="sourcePoint" />
            <mxPoint x="-60" y="580" as="targetPoint" />
            <Array as="points">
              <mxPoint x="-90" y="580" />
            </Array>
          </mxGeometry>
        </mxCell>
        <mxCell id="JEwwXP4cvRhNm4LrkAlZ-34" value="Power LED" style="text;html=1;strokeColor=none;fillColor=none;align=center;verticalAlign=middle;whiteSpace=wrap;rounded=0;" parent="1" vertex="1">
          <mxGeometry x="-100" y="456" width="60" height="30" as="geometry" />
        </mxCell>
        <mxCell id="JEwwXP4cvRhNm4LrkAlZ-35" value="" style="verticalLabelPosition=bottom;shadow=0;dashed=0;align=center;html=1;verticalAlign=top;shape=mxgraph.electrical.opto_electronics.led_2;pointerEvents=1;fillColor=#FF2212;rotation=90;" parent="1" vertex="1">
          <mxGeometry x="-43" y="545" width="40" height="30" as="geometry" />
        </mxCell>
        <mxCell id="JEwwXP4cvRhNm4LrkAlZ-36" value="Wifi/FB" style="text;html=1;strokeColor=none;fillColor=none;align=center;verticalAlign=middle;whiteSpace=wrap;rounded=0;" parent="1" vertex="1">
          <mxGeometry x="-90" y="545" width="60" height="30" as="geometry" />
        </mxCell>
        <mxCell id="JEwwXP4cvRhNm4LrkAlZ-37" value="" style="verticalLabelPosition=bottom;shadow=0;dashed=0;align=center;html=1;verticalAlign=top;shape=mxgraph.electrical.opto_electronics.led_2;pointerEvents=1;fillColor=#FF2212;rotation=90;" parent="1" vertex="1">
          <mxGeometry x="-10" y="545" width="40" height="30" as="geometry" />
        </mxCell>
        <mxCell id="JEwwXP4cvRhNm4LrkAlZ-38" value="" style="verticalLabelPosition=bottom;shadow=0;dashed=0;align=center;html=1;verticalAlign=top;shape=mxgraph.electrical.opto_electronics.led_2;pointerEvents=1;fillColor=#FF2212;rotation=90;" parent="1" vertex="1">
          <mxGeometry x="20" y="545" width="40" height="30" as="geometry" />
        </mxCell>
        <mxCell id="JEwwXP4cvRhNm4LrkAlZ-39" value="" style="verticalLabelPosition=bottom;shadow=0;dashed=0;align=center;html=1;verticalAlign=top;shape=mxgraph.electrical.opto_electronics.led_2;pointerEvents=1;fillColor=#FF2212;rotation=90;" parent="1" vertex="1">
          <mxGeometry x="50" y="545" width="40" height="30" as="geometry" />
        </mxCell>
        <mxCell id="JEwwXP4cvRhNm4LrkAlZ-64" value="" style="verticalLabelPosition=bottom;shadow=0;dashed=0;align=center;html=1;verticalAlign=top;shape=mxgraph.electrical.opto_electronics.led_2;pointerEvents=1;fillColor=#FF2212;rotation=90;" parent="1" vertex="1">
          <mxGeometry x="80" y="545" width="40" height="30" as="geometry" />
        </mxCell>
        <mxCell id="JEwwXP4cvRhNm4LrkAlZ-65" value="" style="verticalLabelPosition=bottom;shadow=0;dashed=0;align=center;html=1;verticalAlign=top;shape=mxgraph.electrical.opto_electronics.led_2;pointerEvents=1;fillColor=#FF2212;rotation=90;" parent="1" vertex="1">
          <mxGeometry x="110" y="545" width="40" height="30" as="geometry" />
        </mxCell>
        <mxCell id="JEwwXP4cvRhNm4LrkAlZ-66" value="" style="verticalLabelPosition=bottom;shadow=0;dashed=0;align=center;html=1;verticalAlign=top;shape=mxgraph.electrical.opto_electronics.led_2;pointerEvents=1;fillColor=#FF2212;rotation=90;" parent="1" vertex="1">
          <mxGeometry x="140" y="545" width="40" height="30" as="geometry" />
        </mxCell>
      </root>
    </mxGraphModel>
  </diagram>
</mxfile>
